# xmcd
#
# Track frame offsets: 
#        150
#        28092
#        58422
#        77807
#        100180
#        118730
#        138082
#        159990
#        176505
#
# Disc length: 2634 seconds
#
# Revision: 3
# Processed by: cddbd v1.5.2PL0 Copyright (c) Steve Scherf et al.
# Submitted via: ExactAudioCopyFreeDBPlugin 1.0
#
DISCID=720a4809
DTITLE=Willie Dixon - I Am The Blues
DYEAR=1970
DGENRE=Blues
TTITLE0=Back Door Man
TTITLE1=I Can't Quit You, Baby
TTITLE2=The Seventh Son
TTITLE3=Spoonful
TTITLE4=I Ain't Superstitious
TTITLE5=You Shook Me
TTITLE6=I'm You Hoochie Coochie Man
TTITLE7=The Little Red Rooster
TTITLE8=The Same Thing
EXTD=
EXTT0=
EXTT1=
EXTT2=
EXTT3=
EXTT4=
EXTT5=
EXTT6=
EXTT7=
EXTT8=
PLAYORDER=
